<?xml version="1.0" standalone="no"?>
<!DOCTYPE svg PUBLIC "-//W3C//DTD SVG 20010904//EN"
 "http://www.w3.org/TR/2001/REC-SVG-20010904/DTD/svg10.dtd">
<svg version="1.0" xmlns="http://www.w3.org/2000/svg"
 width="1280.000000pt" height="1280.000000pt" viewBox="0 0 1280.000000 1280.000000"
 preserveAspectRatio="xMidYMid meet">
<g transform="translate(0.000000,1280.000000) scale(0.100000,-0.100000)"
fill="#000000" stroke="none">
<path d="M6310 9806 c-178 -38 -312 -185 -340 -371 -7 -47 -10 -505 -8 -1380
l3 -1310 23 -60 c101 -270 412 -385 651 -242 98 59 176 172 201 291 7 35 10
479 8 1386 l-3 1335 -22 57 c-59 155 -192 268 -347 297 -72 13 -95 13 -166 -3z"/>
<path d="M5000 9516 c-963 -433 -1672 -1287 -1920 -2310 -68 -281 -94 -502
-94 -806 0 -386 49 -698 166 -1060 397 -1231 1474 -2142 2758 -2334 244 -37
570 -47 810 -26 1249 112 2332 889 2828 2030 147 339 241 715 273 1088 15 177
6 560 -16 722 -102 756 -424 1418 -948 1956 -275 283 -575 504 -913 673 -126
63 -239 111 -261 111 -11 0 -13 -87 -13 -474 l0 -474 138 -97 c177 -126 283
-215 407 -340 396 -398 642 -910 711 -1475 22 -180 14 -553 -14 -715 -75 -422
-231 -785 -485 -1124 -92 -124 -364 -396 -488 -488 -305 -228 -657 -389 -1010
-463 -237 -49 -568 -65 -804 -40 -856 93 -1606 617 -1989 1389 -121 245 -195
481 -237 756 -29 184 -31 499 -5 689 58 428 229 843 492 1196 155 209 303 353
596 581 l153 119 7 53 c11 91 9 566 -4 740 -10 139 -15 167 -28 166 -8 0 -58
-19 -110 -43z"/>
</g>
</svg>
